<svg xmlns="http://www.w3.org/2000/svg" xmlns:xlink="http://www.w3.org/1999/xlink" width="500" zoomAndPan="magnify" viewBox="0 0 375 374.999991" height="500" preserveAspectRatio="xMidYMid meet" version="1.0"><defs><g/><clipPath id="1e9e8c5984"><path d="M 68 72 L 298 72 L 298 312 L 68 312 Z M 68 72 " clip-rule="nonzero"/></clipPath><clipPath id="32ef35495e"><path d="M 59.984375 77.703125 L 295.246094 67.078125 L 306.039062 306.085938 L 70.78125 316.710938 Z M 59.984375 77.703125 " clip-rule="nonzero"/></clipPath><clipPath id="faa9cd7bc6"><path d="M 59.984375 77.703125 L 295.246094 67.078125 L 306.039062 306.085938 L 70.78125 316.710938 Z M 59.984375 77.703125 " clip-rule="nonzero"/></clipPath><clipPath id="a48f3d109c"><path d="M 163.449219 329.742188 L 202.808594 329.742188 L 202.808594 369.101562 L 163.449219 369.101562 Z M 163.449219 329.742188 " clip-rule="nonzero"/></clipPath><clipPath id="77b7328d89"><path d="M 183.128906 329.742188 C 172.261719 329.742188 163.449219 338.550781 163.449219 349.421875 C 163.449219 360.289062 172.261719 369.101562 183.128906 369.101562 C 193.996094 369.101562 202.808594 360.289062 202.808594 349.421875 C 202.808594 338.550781 193.996094 329.742188 183.128906 329.742188 Z M 183.128906 329.742188 " clip-rule="nonzero"/></clipPath></defs><g fill="#faca77" fill-opacity="1"><g transform="translate(58.916424, 147.308334)"><g><path d="M -29.8125 -39.21875 C -29.664062 -39.6875 -29.425781 -40.234375 -29.09375 -40.859375 C -28.769531 -41.484375 -28.226562 -42.382812 -27.46875 -43.5625 C -26.707031 -44.75 -25.984375 -45.695312 -25.296875 -46.40625 C -24.046875 -47.726562 -22.796875 -48.6875 -21.546875 -49.28125 C -20.296875 -49.882812 -19.226562 -50.054688 -18.34375 -49.796875 C -18.15625 -49.765625 -17.957031 -49.691406 -17.75 -49.578125 C -17.082031 -49.222656 -16.191406 -48.5625 -15.078125 -47.59375 C -13.972656 -46.632812 -13.507812 -45.988281 -13.6875 -45.65625 C -13.757812 -45.53125 -14.117188 -45.265625 -14.765625 -44.859375 C -16.253906 -43.878906 -17.617188 -42.566406 -18.859375 -40.921875 C -20.097656 -39.273438 -20.984375 -37.953125 -21.515625 -36.953125 C -21.984375 -36.066406 -22.320312 -35.222656 -22.53125 -34.421875 C -23.0625 -32.285156 -22.988281 -30.234375 -22.3125 -28.265625 C -21.632812 -26.304688 -20.347656 -24.535156 -18.453125 -22.953125 C -17.566406 -22.203125 -16.238281 -21.359375 -14.46875 -20.421875 C -12.707031 -19.492188 -11.222656 -18.851562 -10.015625 -18.5 C -8.179688 -17.9375 -6.40625 -17.753906 -4.6875 -17.953125 C -2.96875 -18.148438 -1.472656 -18.691406 -0.203125 -19.578125 C 1.578125 -20.828125 2.925781 -22.3125 3.84375 -24.03125 C 4.144531 -24.625 4.539062 -25.710938 5.03125 -27.296875 C 5.53125 -28.890625 5.222656 -30.863281 4.109375 -33.21875 C 3.660156 -34.101562 3.46875 -34.65625 3.53125 -34.875 C 3.84375 -35.46875 4.648438 -35.890625 5.953125 -36.140625 C 7.265625 -36.390625 8.523438 -36.328125 9.734375 -35.953125 C 10.109375 -35.859375 10.460938 -35.726562 10.796875 -35.5625 C 11.972656 -34.9375 12.816406 -33.785156 13.328125 -32.109375 C 13.847656 -30.441406 13.71875 -28.160156 12.9375 -25.265625 C 12.332031 -23.003906 11.519531 -20.90625 10.5 -18.96875 C 9.75 -17.550781 8.554688 -15.8125 6.921875 -13.75 C 5.296875 -11.6875 3.054688 -10.175781 0.203125 -9.21875 C -1.609375 -8.625 -3.75 -8.375 -6.21875 -8.46875 C -8.6875 -8.5625 -11.125 -9.03125 -13.53125 -9.875 C -14.875 -10.375 -16.21875 -10.976562 -17.5625 -11.6875 C -19.25 -12.632812 -21.25 -13.984375 -23.5625 -15.734375 C -25.882812 -17.492188 -27.765625 -19.609375 -29.203125 -22.078125 C -30.679688 -24.742188 -31.472656 -27.40625 -31.578125 -30.0625 C -31.679688 -32.71875 -31.09375 -35.769531 -29.8125 -39.21875 Z M -29.8125 -39.21875 "/></g></g></g><g fill="#faca77" fill-opacity="1"><g transform="translate(75.695205, 114.120294)"><g><path d="M -17.8125 -45.25 C -17.46875 -45.71875 -16.910156 -46.332031 -16.140625 -47.09375 C -15.628906 -47.601562 -15.019531 -48.171875 -14.3125 -48.796875 C -12.539062 -50.503906 -10.960938 -51.703125 -9.578125 -52.390625 C -6.847656 -53.753906 -4.09375 -54.332031 -1.3125 -54.125 C 1.46875 -53.914062 4.484375 -52.84375 7.734375 -50.90625 C 9.160156 -50.070312 10.507812 -49.046875 11.78125 -47.828125 C 13.050781 -46.617188 13.851562 -45.84375 14.1875 -45.5 C 15.851562 -43.820312 17.082031 -42.347656 17.875 -41.078125 C 21.976562 -34.773438 23.144531 -28.945312 21.375 -23.59375 C 20.832031 -22.050781 20.125 -20.644531 19.25 -19.375 C 18.375 -18.101562 17.078125 -16.613281 15.359375 -14.90625 C 13.816406 -13.375 12.476562 -12.234375 11.34375 -11.484375 C 10.21875 -10.742188 8.878906 -10.113281 7.328125 -9.59375 C 5.054688 -8.84375 2.585938 -8.6875 -0.078125 -9.125 C -2.742188 -9.5625 -5.347656 -10.554688 -7.890625 -12.109375 C -9.460938 -13.085938 -10.765625 -14.0625 -11.796875 -15.03125 C -12.835938 -16.007812 -13.472656 -16.617188 -13.703125 -16.859375 C -15.171875 -18.335938 -16.320312 -19.769531 -17.15625 -21.15625 C -22.882812 -29.894531 -23.101562 -37.925781 -17.8125 -45.25 Z M -6.28125 -44.03125 C -7.5625 -43.570312 -8.691406 -42.859375 -9.671875 -41.890625 C -9.898438 -41.660156 -10.351562 -41.140625 -11.03125 -40.328125 C -11.71875 -39.523438 -12.175781 -38.367188 -12.40625 -36.859375 C -13 -33.347656 -10.953125 -29.234375 -6.265625 -24.515625 C -3.710938 -21.992188 -1.238281 -20.3125 1.15625 -19.46875 C 3.789062 -18.613281 5.890625 -18.640625 7.453125 -19.546875 C 9.015625 -20.460938 10.066406 -21.1875 10.609375 -21.71875 C 11.859375 -22.957031 12.617188 -24.515625 12.890625 -26.390625 C 13.097656 -28.003906 12.648438 -29.882812 11.546875 -32.03125 C 10.453125 -34.175781 8.835938 -36.328125 6.703125 -38.484375 C 1.597656 -43.578125 -2.726562 -45.425781 -6.28125 -44.03125 Z M -6.28125 -44.03125 "/></g></g></g><g fill="#faca77" fill-opacity="1"><g transform="translate(105.926058, 84.172617)"><g><path d="M -3.171875 -47.84375 C -2.484375 -48.289062 -1.507812 -48.835938 -0.25 -49.484375 C 0.132812 -49.671875 0.921875 -50.054688 2.109375 -50.640625 C 3.304688 -51.234375 4.410156 -51.644531 5.421875 -51.875 C 8.640625 -52.757812 11.257812 -52.820312 13.28125 -52.0625 C 14.007812 -51.789062 14.453125 -51.570312 14.609375 -51.40625 C 14.773438 -51.25 14.941406 -51.003906 15.109375 -50.671875 C 15.171875 -50.546875 15.257812 -50.375 15.375 -50.15625 C 15.695312 -49.3125 15.804688 -47.828125 15.703125 -45.703125 C 15.566406 -43.597656 15.410156 -42.503906 15.234375 -42.421875 C 15.109375 -42.359375 14.800781 -42.5 14.3125 -42.84375 C 13.457031 -43.46875 12.332031 -43.863281 10.9375 -44.03125 C 9.550781 -44.207031 8.195312 -44.125 6.875 -43.78125 C 5.945312 -43.519531 5.109375 -43.195312 4.359375 -42.8125 C 2.828125 -42.039062 1.394531 -40.8125 0.0625 -39.125 C -1.257812 -37.445312 -1.878906 -35.320312 -1.796875 -32.75 C -1.722656 -31.5625 -1.4375 -30.21875 -0.9375 -28.71875 C -0.4375 -27.21875 0.09375 -25.914062 0.65625 -24.8125 C 0.820312 -24.476562 1 -24.117188 1.1875 -23.734375 C 4.3125 -18.410156 7.816406 -15.800781 11.703125 -15.90625 C 13.648438 -15.9375 15.328125 -16.3125 16.734375 -17.03125 C 17.066406 -17.195312 17.367188 -17.378906 17.640625 -17.578125 C 18.359375 -18.046875 19.03125 -18.707031 19.65625 -19.5625 C 20.289062 -20.414062 20.65625 -21.125 20.75 -21.6875 C 20.75 -22.175781 20.535156 -23.003906 20.109375 -24.171875 C 19.679688 -25.335938 19.296875 -26.257812 18.953125 -26.9375 C 18.734375 -27.351562 18.519531 -27.722656 18.3125 -28.046875 L 17.671875 -29 L 15.125 -27.703125 C 13.65625 -26.953125 12.550781 -26.507812 11.8125 -26.375 C 11.082031 -26.25 10.253906 -26.347656 9.328125 -26.671875 C 8.742188 -26.898438 8.03125 -27.296875 7.1875 -27.859375 C 6.34375 -28.421875 5.691406 -28.953125 5.234375 -29.453125 C 5.140625 -29.515625 5.070312 -29.585938 5.03125 -29.671875 C 4.96875 -29.796875 4.988281 -29.910156 5.09375 -30.015625 C 5.195312 -30.117188 5.585938 -30.40625 6.265625 -30.875 C 7.910156 -31.914062 10.0625 -33.191406 12.71875 -34.703125 C 15.382812 -36.210938 17.226562 -37.226562 18.25 -37.75 C 19.007812 -38.132812 19.503906 -38.359375 19.734375 -38.421875 C 21.179688 -38.929688 22.5 -38.75 23.6875 -37.875 C 24.09375 -37.601562 24.382812 -37.296875 24.5625 -36.953125 C 24.5625 -36.953125 24.597656 -36.847656 24.671875 -36.640625 C 24.742188 -36.441406 25.019531 -35.566406 25.5 -34.015625 C 26.082031 -31.910156 27.203125 -29.125 28.859375 -25.65625 C 29.929688 -23.332031 30.59375 -21.804688 30.84375 -21.078125 C 31.101562 -20.359375 31.238281 -19.679688 31.25 -19.046875 C 31.289062 -18.222656 31.226562 -17.582031 31.0625 -17.125 C 30.894531 -16.675781 30.582031 -16.171875 30.125 -15.609375 C 29.882812 -15.328125 29.597656 -15.101562 29.265625 -14.9375 C 29.015625 -14.8125 28.609375 -14.695312 28.046875 -14.59375 C 27.484375 -14.488281 26.820312 -14.617188 26.0625 -14.984375 L 24.9375 -15.453125 L 23.96875 -14.078125 C 23.039062 -12.753906 21.875 -11.644531 20.46875 -10.75 C 19.0625 -9.851562 18 -9.222656 17.28125 -8.859375 C 15.976562 -8.191406 14.664062 -7.6875 13.34375 -7.34375 C 9.601562 -6.332031 6.03125 -6.71875 2.625 -8.5 C -0.78125 -10.28125 -3.789062 -13.332031 -6.40625 -17.65625 C -6.894531 -18.40625 -7.34375 -19.1875 -7.75 -20 C -10.5 -25.40625 -11.363281 -30.867188 -10.34375 -36.390625 C -9.90625 -38.679688 -9.050781 -40.851562 -7.78125 -42.90625 C -6.507812 -44.957031 -4.972656 -46.601562 -3.171875 -47.84375 Z M -3.171875 -47.84375 "/></g></g></g><g fill="#faca77" fill-opacity="1"><g transform="translate(141.050543, 66.254176)"><g><path d="M -3.84375 -42.15625 C -2.925781 -42.644531 -1.671875 -43.03125 -0.078125 -43.3125 L 2.140625 -43.796875 L 3.46875 -42.78125 C 4.34375 -42.175781 5.988281 -40.5 8.40625 -37.75 C 14.65625 -30.476562 19.171875 -25.378906 21.953125 -22.453125 C 23.429688 -20.890625 24.242188 -20.117188 24.390625 -20.140625 C 24.484375 -20.160156 24.515625 -20.257812 24.484375 -20.4375 C 24.503906 -20.59375 24.4375 -21.113281 24.28125 -22 C 23.925781 -23.957031 23.222656 -27.503906 22.171875 -32.640625 C 21.117188 -37.773438 20.410156 -41.367188 20.046875 -43.421875 C 19.804688 -44.773438 19.703125 -45.503906 19.734375 -45.609375 C 19.878906 -46.398438 21.375 -47.050781 24.21875 -47.5625 L 27.09375 -48.0625 L 29.375 -46.234375 L 30.375 -39.3125 C 30.945312 -35.53125 31.929688 -29.304688 33.328125 -20.640625 C 34.171875 -15.347656 34.679688 -12.003906 34.859375 -10.609375 C 35.035156 -9.222656 35.035156 -8.316406 34.859375 -7.890625 C 34.671875 -7.296875 34.398438 -6.859375 34.046875 -6.578125 C 33.691406 -6.296875 33.03125 -6.023438 32.0625 -5.765625 C 31.75 -5.648438 31.425781 -5.5625 31.09375 -5.5 C 29.5 -5.21875 28.128906 -5.488281 26.984375 -6.3125 C 25.484375 -7.4375 21.175781 -12.0625 14.0625 -20.1875 C 9.632812 -25.226562 7.304688 -27.875 7.078125 -28.125 C 6.910156 -28.289062 6.800781 -28.367188 6.75 -28.359375 C 6.65625 -28.347656 6.625 -28.269531 6.65625 -28.125 C 6.675781 -27.976562 6.726562 -27.675781 6.8125 -27.21875 C 6.976562 -26.28125 7.289062 -24.648438 7.75 -22.328125 C 8.789062 -17.546875 9.578125 -13.632812 10.109375 -10.59375 C 10.484375 -8.164062 10.707031 -6.628906 10.78125 -5.984375 C 10.851562 -5.347656 10.796875 -4.753906 10.609375 -4.203125 C 10.171875 -2.828125 9.175781 -1.875 7.625 -1.34375 C 7.445312 -1.3125 7.265625 -1.28125 7.078125 -1.25 C 6.328125 -1.113281 5.554688 -1.171875 4.765625 -1.421875 C 3.972656 -1.671875 3.328125 -2.132812 2.828125 -2.8125 C 2.503906 -3.289062 2.175781 -4.328125 1.84375 -5.921875 C 1.507812 -7.523438 0.753906 -11.640625 -0.421875 -18.265625 C -2.347656 -29.148438 -3.898438 -36.707031 -5.078125 -40.9375 C -5.078125 -40.976562 -5.082031 -41.019531 -5.09375 -41.0625 C -5.125 -41.25 -5.054688 -41.414062 -4.890625 -41.5625 C -4.734375 -41.71875 -4.382812 -41.914062 -3.84375 -42.15625 Z M -3.84375 -42.15625 "/></g></g></g><g fill="#faca77" fill-opacity="1"><g transform="translate(179.169824, 60.156952)"><g><path d="M 9.96875 -41.890625 C 12.25 -41.898438 15.140625 -41.769531 18.640625 -41.5 C 19.066406 -41.457031 20.410156 -41.335938 22.671875 -41.140625 C 24.941406 -40.953125 26.28125 -40.71875 26.6875 -40.4375 C 27.144531 -40.125 27.457031 -39.671875 27.625 -39.078125 C 27.789062 -38.492188 27.851562 -37.96875 27.8125 -37.5 C 27.800781 -37.257812 27.757812 -37.003906 27.6875 -36.734375 C 27.320312 -35.191406 26.445312 -34.375 25.0625 -34.28125 C 24.925781 -34.25 24.257812 -34.207031 23.0625 -34.15625 C 22.4375 -34.0625 22.039062 -33.878906 21.875 -33.609375 C 21.695312 -33.285156 21.289062 -29.894531 20.65625 -23.4375 C 20.050781 -17.539062 19.578125 -13.007812 19.234375 -9.84375 L 18.796875 -5.953125 L 21.34375 -5.609375 C 23.070312 -5.378906 24.144531 -5.15625 24.5625 -4.9375 C 25.65625 -4.28125 26.128906 -3.03125 25.984375 -1.1875 C 25.929688 -0.582031 25.859375 -0.140625 25.765625 0.140625 C 25.679688 0.421875 25.460938 0.671875 25.109375 0.890625 C 24.597656 1.273438 23.773438 1.46875 22.640625 1.46875 C 21.503906 1.476562 18.613281 1.351562 13.96875 1.09375 C 12.3125 1.007812 10.894531 0.921875 9.71875 0.828125 C 8.019531 0.703125 6.789062 0.546875 6.03125 0.359375 C 5.28125 0.179688 4.632812 -0.351562 4.09375 -1.25 C 3.789062 -1.707031 3.457031 -2.492188 3.09375 -3.609375 C 2.738281 -4.734375 2.578125 -5.457031 2.609375 -5.78125 C 2.609375 -5.875 3.707031 -6.003906 5.90625 -6.171875 C 8.144531 -6.335938 9.4375 -6.429688 9.78125 -6.453125 C 10.019531 -6.472656 10.21875 -7.070312 10.375 -8.25 C 10.539062 -9.425781 10.90625 -13.300781 11.46875 -19.875 C 11.644531 -22.132812 11.800781 -24.117188 11.9375 -25.828125 C 12.332031 -30.972656 12.5 -33.71875 12.4375 -34.0625 C 12.40625 -34.394531 12.304688 -34.613281 12.140625 -34.71875 C 11.984375 -34.820312 11.671875 -34.894531 11.203125 -34.9375 C 9.222656 -35.09375 7.742188 -36.515625 6.765625 -39.203125 C 6.453125 -40.128906 6.304688 -40.78125 6.328125 -41.15625 C 6.347656 -41.351562 6.4375 -41.515625 6.59375 -41.640625 C 6.75 -41.773438 7.875 -41.859375 9.96875 -41.890625 Z M 9.96875 -41.890625 "/></g></g></g><g fill="#faca77" fill-opacity="1"><g transform="translate(207.120135, 62.070953)"><g><path d="M 22.328125 -38.265625 C 25.460938 -37.503906 28.476562 -36.671875 31.375 -35.765625 C 34.269531 -34.867188 36.125 -34.289062 36.9375 -34.03125 C 40.144531 -33.007812 42.019531 -32.335938 42.5625 -32.015625 C 43.320312 -31.578125 43.789062 -31.09375 43.96875 -30.5625 C 44.144531 -30.03125 44.097656 -29.332031 43.828125 -28.46875 C 43.222656 -26.570312 42.078125 -25.492188 40.390625 -25.234375 C 39.867188 -25.160156 39.132812 -25.234375 38.1875 -25.453125 C 37.238281 -25.679688 34.992188 -26.316406 31.453125 -27.359375 C 26.273438 -28.910156 23.601562 -29.660156 23.4375 -29.609375 C 23.351562 -29.492188 22.769531 -27.988281 21.6875 -25.09375 L 20.078125 -20.765625 L 21.546875 -20.4375 C 23.171875 -20.070312 25.097656 -19.601562 27.328125 -19.03125 C 29.566406 -18.46875 31.15625 -18.035156 32.09375 -17.734375 C 32.644531 -17.566406 33.046875 -17.410156 33.296875 -17.265625 C 34.265625 -16.867188 34.929688 -16.425781 35.296875 -15.9375 C 35.660156 -15.445312 35.84375 -14.800781 35.84375 -14 C 35.800781 -13.5625 35.722656 -13.164062 35.609375 -12.8125 C 35.410156 -12.175781 35.007812 -11.539062 34.40625 -10.90625 C 33.800781 -10.28125 32.988281 -9.984375 31.96875 -10.015625 C 31.269531 -10.035156 28.773438 -10.660156 24.484375 -11.890625 L 18.046875 -13.71875 L 15.390625 -5.828125 C 14.273438 -2.554688 13.488281 -0.429688 13.03125 0.546875 C 12.570312 1.523438 12.007812 2.28125 11.34375 2.8125 C 10.414062 3.5625 9.382812 3.753906 8.25 3.390625 C 8.113281 3.347656 7.679688 3.171875 6.953125 2.859375 C 6.234375 2.546875 5.664062 1.648438 5.25 0.171875 C 4.90625 -1.078125 4.894531 -2.359375 5.21875 -3.671875 C 5.539062 -4.984375 6.476562 -8.082031 8.03125 -12.96875 C 8.65625 -14.914062 9.378906 -17.171875 10.203125 -19.734375 L 15.09375 -34.828125 L 14.9375 -36.890625 C 14.882812 -38.597656 14.894531 -39.578125 14.96875 -39.828125 C 15.050781 -40.078125 15.390625 -40.109375 15.984375 -39.921875 C 16.609375 -39.722656 18.722656 -39.171875 22.328125 -38.265625 Z M 22.328125 -38.265625 "/></g></g></g><g fill="#faca77" fill-opacity="1"><g transform="translate(237.769569, 71.609605)"><g><path d="M 37.609375 -27.515625 C 41.410156 -25.265625 44.210938 -23.566406 46.015625 -22.421875 C 46.890625 -21.867188 47.695312 -21.3125 48.4375 -20.75 C 49.1875 -20.195312 49.570312 -19.460938 49.59375 -18.546875 C 49.613281 -17.921875 49.492188 -17.363281 49.234375 -16.875 C 48.972656 -16.394531 48.796875 -16.078125 48.703125 -15.921875 C 48.316406 -15.316406 47.898438 -14.878906 47.453125 -14.609375 C 47.023438 -14.304688 46.675781 -14.117188 46.40625 -14.046875 C 46.132812 -13.972656 45.59375 -14.09375 44.78125 -14.40625 C 43.976562 -14.726562 43.066406 -15.164062 42.046875 -15.71875 C 41.023438 -16.28125 39.40625 -17.25 37.1875 -18.625 C 32.394531 -21.425781 29.960938 -22.816406 29.890625 -22.796875 C 29.796875 -22.804688 29.0625 -21.84375 27.6875 -19.90625 C 26.3125 -17.976562 25.421875 -16.691406 25.015625 -16.046875 C 24.734375 -15.609375 24.601562 -15.359375 24.625 -15.296875 C 24.5625 -15.203125 24.710938 -15.039062 25.078125 -14.8125 C 25.628906 -14.457031 26.695312 -13.925781 28.28125 -13.21875 C 31.007812 -11.9375 33.273438 -10.726562 35.078125 -9.59375 C 36.628906 -8.601562 37.550781 -7.984375 37.84375 -7.734375 C 38.144531 -7.492188 38.351562 -7.109375 38.46875 -6.578125 C 38.613281 -5.929688 38.410156 -5.082031 37.859375 -4.03125 C 37.722656 -3.820312 37.609375 -3.640625 37.515625 -3.484375 C 36.691406 -2.203125 35.769531 -1.550781 34.75 -1.53125 C 34.03125 -1.53125 29.96875 -3.710938 22.5625 -8.078125 C 21.445312 -8.722656 20.785156 -9.003906 20.578125 -8.921875 C 20.359375 -8.835938 19.375 -7.414062 17.625 -4.65625 L 15 -0.515625 L 17.03125 0.78125 C 18.59375 1.769531 20.128906 2.660156 21.640625 3.453125 C 25.285156 5.328125 27.785156 6.691406 29.140625 7.546875 C 29.628906 7.859375 29.976562 8.109375 30.1875 8.296875 C 31.0625 9.140625 31.472656 10.109375 31.421875 11.203125 C 31.378906 12.296875 31.15625 13.15625 30.75 13.78125 C 30.539062 14.113281 30.3125 14.398438 30.0625 14.640625 C 28.988281 15.585938 27.757812 15.785156 26.375 15.234375 C 25.59375 14.960938 21.992188 12.847656 15.578125 8.890625 C 15.359375 8.804688 15.085938 8.660156 14.765625 8.453125 C 12.941406 7.335938 11.390625 6.375 10.109375 5.5625 C 7.910156 4.164062 6.476562 3.171875 5.8125 2.578125 C 5.144531 1.992188 4.878906 1.070312 5.015625 -0.1875 L 5.1875 -1.921875 L 23.390625 -30.21875 L 23.890625 -32.4375 C 24.191406 -33.707031 24.421875 -34.460938 24.578125 -34.703125 L 24.609375 -34.765625 C 24.921875 -34.835938 29.253906 -32.421875 37.609375 -27.515625 Z M 37.609375 -27.515625 "/></g></g></g><g fill="#faca77" fill-opacity="1"><g transform="translate(267.204918, 90.312376)"><g><path d="M 41.734375 -19.46875 C 42.453125 -18.957031 43.320312 -18.144531 44.34375 -17.03125 C 44.664062 -16.6875 45.265625 -16 46.140625 -14.96875 C 47.023438 -13.945312 47.78125 -12.882812 48.40625 -11.78125 C 49 -10.65625 49.453125 -9.476562 49.765625 -8.25 C 50.085938 -7.03125 50.179688 -6.140625 50.046875 -5.578125 C 49.890625 -4.847656 49.40625 -4.046875 48.59375 -3.171875 C 48.488281 -3.078125 48.398438 -2.992188 48.328125 -2.921875 C 47.554688 -2.222656 46.84375 -1.820312 46.1875 -1.71875 C 45.226562 -1.539062 44.628906 -1.566406 44.390625 -1.796875 C 44.148438 -2.035156 44.015625 -2.171875 43.984375 -2.203125 C 43.535156 -2.691406 43.023438 -3.703125 42.453125 -5.234375 C 41.566406 -7.515625 40.835938 -9.050781 40.265625 -9.84375 C 39.703125 -10.644531 39.273438 -11.203125 38.984375 -11.515625 C 38.273438 -12.285156 37.472656 -12.910156 36.578125 -13.390625 C 34.984375 -14.296875 33.46875 -14.085938 32.03125 -12.765625 C 31.582031 -12.347656 31.300781 -12.007812 31.1875 -11.75 C 31.082031 -11.488281 30.992188 -10.96875 30.921875 -10.1875 C 30.941406 -9.050781 31.5625 -6.910156 32.78125 -3.765625 C 33.800781 -1.046875 34.492188 1.015625 34.859375 2.421875 C 35.222656 3.828125 35.375 5.203125 35.3125 6.546875 C 35.21875 8.828125 34.34375 11.019531 32.6875 13.125 C 32.144531 13.75 31.597656 14.316406 31.046875 14.828125 C 28.566406 17.109375 25.71875 18.242188 22.5 18.234375 C 20.289062 18.222656 18.054688 17.515625 15.796875 16.109375 C 14.679688 15.390625 13.085938 13.90625 11.015625 11.65625 C 8.941406 9.40625 7.550781 7.644531 6.84375 6.375 C 5.46875 3.769531 4.832031 1.539062 4.9375 -0.3125 C 4.96875 -0.96875 5.054688 -1.425781 5.203125 -1.6875 C 5.359375 -1.945312 5.75 -2.367188 6.375 -2.953125 C 7 -3.523438 8.003906 -4.195312 9.390625 -4.96875 C 10.785156 -5.738281 11.53125 -6.070312 11.625 -5.96875 C 11.726562 -5.863281 12.082031 -4.738281 12.6875 -2.59375 C 13.363281 -0.1875 14 1.65625 14.59375 2.9375 C 15.195312 4.226562 15.976562 5.460938 16.9375 6.640625 C 17.164062 6.890625 17.375 7.117188 17.5625 7.328125 C 18.363281 8.203125 19.109375 8.800781 19.796875 9.125 C 21.097656 9.675781 22.09375 9.710938 22.78125 9.234375 C 23.46875 8.765625 23.894531 8.453125 24.0625 8.296875 C 24.90625 7.523438 25.332031 6.554688 25.34375 5.390625 C 25.320312 4.441406 25.195312 3.523438 24.96875 2.640625 C 24.738281 1.765625 24.238281 0.390625 23.46875 -1.484375 C 21.644531 -5.992188 20.816406 -9.453125 20.984375 -11.859375 C 21.117188 -13.460938 21.445312 -14.765625 21.96875 -15.765625 C 22.5 -16.773438 23.476562 -17.9375 24.90625 -19.25 C 25.957031 -20.21875 26.679688 -20.832031 27.078125 -21.09375 C 27.472656 -21.363281 28.144531 -21.644531 29.09375 -21.9375 C 31 -22.46875 33.109375 -22.507812 35.421875 -22.0625 C 37.734375 -21.613281 39.835938 -20.75 41.734375 -19.46875 Z M 41.734375 -19.46875 "/></g></g></g><g fill="#faca77" fill-opacity="1"><g transform="translate(290.019025, 114.72013)"><g><path d="M 47.59375 -1.890625 C 47.6875 -1.710938 47.835938 -1.46875 48.046875 -1.15625 C 50.398438 2.957031 52.023438 5.878906 52.921875 7.609375 C 53.296875 8.328125 53.625 9.035156 53.90625 9.734375 C 54.195312 10.441406 54.039062 11.25 53.4375 12.15625 C 53.375 12.226562 53.34375 12.265625 53.34375 12.265625 C 52.820312 13.023438 52.164062 13.609375 51.375 14.015625 C 51.113281 14.148438 50.628906 14.332031 49.921875 14.5625 C 49.222656 14.800781 48.425781 14.726562 47.53125 14.34375 C 47.101562 14.125 46.722656 13.78125 46.390625 13.3125 C 46.066406 12.84375 45.347656 11.535156 44.234375 9.390625 L 41.90625 4.90625 L 39.671875 5.84375 C 38.304688 6.394531 33.578125 8.710938 25.484375 12.796875 L 13.53125 18.78125 L 12.03125 18.6875 C 10.039062 18.550781 8.726562 17.875 8.09375 16.65625 C 8.09375 16.65625 7.9375 16.328125 7.625 15.671875 C 7.320312 15.023438 7.691406 13.847656 8.734375 12.140625 L 9.484375 10.859375 L 23.21875 3.65625 C 32.320312 -1.238281 36.882812 -3.71875 36.90625 -3.78125 C 36.925781 -3.851562 36.882812 -3.988281 36.78125 -4.1875 C 36.507812 -4.695312 35.960938 -5.597656 35.140625 -6.890625 C 34.660156 -7.710938 34.257812 -8.4375 33.9375 -9.0625 C 33.601562 -9.6875 33.320312 -10.316406 33.09375 -10.953125 C 32.875 -11.585938 32.875 -12.359375 33.09375 -13.265625 C 33.363281 -14.097656 33.8125 -14.890625 34.4375 -15.640625 C 34.957031 -16.285156 35.503906 -16.820312 36.078125 -17.25 C 36.660156 -17.6875 37.078125 -17.972656 37.328125 -18.109375 C 37.578125 -18.234375 37.742188 -18.265625 37.828125 -18.203125 C 38.316406 -17.878906 41.570312 -12.441406 47.59375 -1.890625 Z M 47.59375 -1.890625 "/></g></g></g><g clip-path="url(#1e9e8c5984)"><g clip-path="url(#32ef35495e)"><g clip-path="url(#faa9cd7bc6)"><path fill="#faca77" d="M 285.796875 207.816406 L 205.074219 191.066406 L 285.882812 176.851562 C 294.824219 173.96875 299.742188 164.386719 296.863281 155.441406 C 293.984375 146.496094 284.398438 141.582031 275.453125 144.460938 L 200.304688 178.355469 L 257.320312 119.359375 C 262.863281 111.773438 261.207031 101.128906 253.621094 95.585938 C 246.035156 90.042969 235.390625 91.699219 229.847656 99.285156 L 191.582031 166.308594 L 200.425781 89.636719 C 200.449219 80.238281 192.851562 72.601562 183.457031 72.578125 C 174.058594 72.550781 166.421875 80.148438 166.398438 89.542969 L 177.652344 171.253906 L 136.921875 99.03125 C 131.417969 91.414062 120.785156 89.703125 113.167969 95.203125 C 105.550781 100.707031 103.835938 111.339844 109.339844 118.957031 L 166.472656 178.445312 L 91.070312 143.960938 C 82.140625 141.03125 72.53125 145.898438 69.601562 154.824219 C 66.675781 163.753906 71.539062 173.367188 80.46875 176.292969 L 161.65625 190.835938 L 80.382812 207.257812 C 71.441406 210.136719 66.523438 219.722656 69.402344 228.667969 C 72.28125 237.609375 81.867188 242.527344 90.8125 239.648438 L 165.042969 203.691406 L 108.945312 264.746094 C 103.402344 272.335938 105.058594 282.980469 112.644531 288.523438 C 120.230469 294.066406 130.875 292.410156 136.417969 284.824219 L 178.207031 206.746094 L 165.84375 294.472656 C 165.816406 303.867188 173.414062 311.503906 182.808594 311.53125 C 192.207031 311.554688 199.84375 303.960938 199.867188 294.5625 L 190.851562 212.617188 L 229.34375 285.074219 C 234.847656 292.691406 245.480469 294.40625 253.097656 288.902344 C 260.714844 283.402344 262.429688 272.765625 256.925781 265.148438 L 201.464844 204.152344 L 275.195312 240.148438 C 284.125 243.074219 293.734375 238.210938 296.664062 229.28125 C 299.589844 220.355469 294.726562 210.742188 285.796875 207.816406 Z M 285.796875 207.816406 " fill-opacity="1" fill-rule="nonzero"/></g></g></g><g clip-path="url(#a48f3d109c)"><g clip-path="url(#77b7328d89)"><path fill="#faca77" d="M 163.449219 329.742188 L 202.808594 329.742188 L 202.808594 369.101562 L 163.449219 369.101562 Z M 163.449219 329.742188 " fill-opacity="1" fill-rule="nonzero"/></g></g></svg>